<?xml version="1.0" encoding="UTF-8" standalone="no"?>
<svg
   viewBox="0 0 640 512"
   version="1.1"
   id="svg1"
   sodipodi:docname="closed-eye-light.svg"
   inkscape:version="1.4.2 (ebf0e940d0, 2025-05-08)"
   xmlns:inkscape="http://www.inkscape.org/namespaces/inkscape"
   xmlns:sodipodi="http://sodipodi.sourceforge.net/DTD/sodipodi-0.dtd"
   xmlns="http://www.w3.org/2000/svg"
   xmlns:svg="http://www.w3.org/2000/svg"
   xmlns:rdf="http://www.w3.org/1999/02/22-rdf-syntax-ns#"
   xmlns:cc="http://creativecommons.org/ns#"
   xmlns:dc="http://purl.org/dc/elements/1.1/">
  <defs
     id="defs1" />
  <sodipodi:namedview
     id="namedview1"
     pagecolor="#ffffff"
     bordercolor="#000000"
     borderopacity="0.25"
     inkscape:showpageshadow="2"
     inkscape:pageopacity="0.0"
     inkscape:pagecheckerboard="0"
     inkscape:deskcolor="#d1d1d1"
     inkscape:zoom="0.6269531"
     inkscape:cx="626.84115"
     inkscape:cy="518.38008"
     inkscape:window-width="2048"
     inkscape:window-height="1080"
     inkscape:window-x="0"
     inkscape:window-y="0"
     inkscape:window-maximized="1"
     inkscape:current-layer="svg1" />
  <path
     d="m 323.31666,318.50393 -65.15073,-51.11019 c 5.4476,29.23582 31.00729,51.41856 61.81774,51.41856 1.16786,0.0197 2.21762,-0.24276 3.33299,-0.30837 z m -3.34611,31.82085 c -52.15995,0 -94.4784,-42.33157 -94.4784,-93.88791 0,-4.45426 0.71515,-8.71301 0.72171,-13.0039 l -62.8675,-50.30975 c -11.6589,15.58238 -21.82844,32.83125 -30.05593,51.5629 -1.25315,2.8934 -2.86716,7.87976 -2.86716,11.16026 0,3.26541 1.02548,8.26686 2.27601,11.17339 35.59342,80.96274 106.02575,135.22221 186.66044,135.22221 29.82631,0 58.242,-7.53859 84.04641,-21.08706 l -48.87945,-38.31624 c -10.87092,4.92731 -22.68072,7.4861 -34.55613,7.4861 z m 203.91588,45.33651 -67.90635,-53.21627 c 20.58186,-20.96895 37.9029,-46.41907 50.65748,-74.86101 1.25054,-2.90652 2.27601,-7.91913 2.27601,-11.17338 0,-3.26476 -1.02482,-8.26686 -2.27601,-11.17338 C 471.04414,164.27451 400.6118,110.01504 319.97711,110.01504 c -41.13091,0 -79.51932,14.39483 -112.06188,39.11668 L 135.4818,91.24139 c -2.88684,-2.255015 -6.31168,-3.356607 -9.69716,-3.356607 -4.67143,0 -9.31071,2.071964 -12.40619,6.028903 -5.37149,6.849684 -4.17936,16.750234 2.66901,22.110564 l 387.8207,303.83991 c 6.88905,5.382 16.77648,4.15509 22.10401,-2.67229 5.98429,-6.24345 4.7377,-16.15056 -2.08574,-21.53058 z M 413.85846,255.84638 c 0,16.30409 -4.39914,31.47968 -11.77699,44.79195 l -25.29266,-19.8339 c 3.43797,-7.66325 5.57358,-16.02197 5.57358,-24.98429 0,-34.18281 -28.2123,-62.9856 -62.39511,-62.9856 -1.50969,0.0193 -3.65777,0.29105 -5.55127,0.50244 3.45502,6.0848 4.96405,13.03946 4.96405,20.519 0,6.67254 -1.68027,12.90549 -4.47526,18.47578 l -58.18229,-46.09759 c 16.70431,-15.33962 38.78863,-24.88587 63.26116,-24.88587 52.14683,0.0197 93.87479,42.40374 93.87479,94.49808 z"
     id="path1"
     style="fill:#b2b2b2;fill-opacity:1;stroke:#b2b2b2;stroke-width:0.6561;stroke-opacity:1" />
  <metadata
     id="metadata1">
    <rdf:RDF>
      <cc:License
         rdf:about="http://creativecommons.org/licenses/by/4.0/">
        <cc:permits
           rdf:resource="http://creativecommons.org/ns#Reproduction" />
        <cc:permits
           rdf:resource="http://creativecommons.org/ns#Distribution" />
        <cc:requires
           rdf:resource="http://creativecommons.org/ns#Notice" />
        <cc:requires
           rdf:resource="http://creativecommons.org/ns#Attribution" />
        <cc:permits
           rdf:resource="http://creativecommons.org/ns#DerivativeWorks" />
      </cc:License>
      <cc:Work
         rdf:about="">
        <cc:license
           rdf:resource="http://creativecommons.org/licenses/by/4.0/" />
        <dc:creator>
          <cc:Agent>
            <dc:title>Font Awesome - Solid icon pack</dc:title>
          </cc:Agent>
        </dc:creator>
      </cc:Work>
    </rdf:RDF>
  </metadata>
</svg>
