<?xml version="1.0" encoding="UTF-8" standalone="no"?>
<svg
   width="512"
   height="512"
   version="1.1"
   viewBox="0 0 512 512"
   id="svg5"
   sodipodi:docname="csv-import-light.svg"
   inkscape:version="1.4.4 (dcaf3e7d9e, 2026-05-05)"
   xmlns:inkscape="http://www.inkscape.org/namespaces/inkscape"
   xmlns:sodipodi="http://sodipodi.sourceforge.net/DTD/sodipodi-0.dtd"
   xmlns="http://www.w3.org/2000/svg"
   xmlns:svg="http://www.w3.org/2000/svg">
  <sodipodi:namedview
     id="namedview1"
     pagecolor="#ffffff"
     bordercolor="#000000"
     borderopacity="0.25"
     inkscape:showpageshadow="2"
     inkscape:pageopacity="0.0"
     inkscape:pagecheckerboard="0"
     inkscape:deskcolor="#d1d1d1"
     showguides="true"
     inkscape:zoom="1.6038804"
     inkscape:cx="287.73966"
     inkscape:cy="250.01864"
     inkscape:window-width="2400"
     inkscape:window-height="1323"
     inkscape:window-x="0"
     inkscape:window-y="0"
     inkscape:window-maximized="1"
     inkscape:current-layer="g2" />
  <defs
     id="defs5" />
  <g
     id="g2"
     transform="translate(-2.2,-6)">
    <path
       id="folder-back"
       style="fill:#b2b2b2;fill-opacity:1;stroke:none;stroke-width:0.947534"
       d="M 136.16484 125.28711 C 118.36435 125.28711 103.93436 141.45034 103.93438 161.38867 L 103.93438 288.67383 L 114.36406 242.88477 C 119.69996 219.45727 143.81316 200.2207 167.84062 200.2207 L 411.9168 200.2207 L 411.9168 198.52734 C 411.9168 178.58901 397.48682 162.42578 379.68633 162.42578 L 256.78398 162.42578 C 248.54518 162.42578 242.35587 157.66564 237.08867 152.39844 L 221.81133 135.31641 C 216.19728 129.70236 209.64436 125.38907 202.11406 125.28711 L 136.16484 125.28711 z M 162.31523 224.47852 C 151.64082 224.47852 141.61544 232.4769 139.24492 242.88477 L 109.55742 373.22266 C 107.1869 383.63052 113.57051 391.63086 124.24492 391.63086 L 375.32109 391.63086 C 385.9955 391.63086 396.02089 383.63052 398.39141 373.22266 L 428.07891 242.88477 C 430.44942 232.4769 424.06582 224.47852 413.39141 224.47852 L 162.31523 224.47852 z M 205.90898 260.51172 C 215.35626 260.51172 222.76595 263.93862 227.28984 270.80273 L 227.2918 270.80469 C 230.14281 275.09824 231.41912 281.02101 231.41289 288.22852 C 231.41078 290.90468 229.34983 293.67572 226.88164 294.32227 L 211.83086 298.26367 C 209.41691 298.89641 207.55116 297.24858 207.68047 294.5957 C 207.8451 291.21525 207.18954 288.97682 205.71172 287.19727 C 205.70659 287.19099 205.70098 287.18423 205.69609 287.17773 C 204.25726 285.41771 202.34209 284.54297 199.33672 284.54297 C 195.11385 284.54297 191.92882 286.03285 188.55352 289.44531 C 185.5869 292.47367 182.5387 298.38506 180.29766 307.58984 C 177.89882 317.44271 178.02188 323.74832 179.45586 326.73438 C 181.11249 330.18408 183.47473 331.65234 187.57891 331.65234 C 190.47811 331.65234 192.79767 330.72398 195.30937 328.65039 C 197.61169 326.74967 200.10405 323.34034 202.4832 317.92969 C 203.70784 315.14584 206.56715 313.50027 208.68242 314.36328 L 221.23906 319.48828 C 223.18459 320.28208 223.76499 322.91389 222.55352 325.44727 C 217.88818 335.20119 212.00612 342.98811 204.94414 348.15234 L 204.93828 348.1543 C 197.9698 353.24151 190.12385 355.68359 181.87187 355.68359 C 171.55971 355.68359 163.57712 351.33469 158.85039 342.94336 L 158.84844 342.94141 L 158.84844 342.93945 C 158.84809 342.93851 158.84687 342.93451 158.84648 342.93359 L 158.84453 342.93164 C 154.07098 334.39608 153.59259 322.7084 156.97148 308.83008 C 160.52206 294.2466 166.76275 282.16098 175.78984 273.5 L 175.78984 273.49805 L 175.7918 273.49609 C 184.71324 264.90951 195.11868 260.51172 205.90898 260.51172 z M 277.65703 260.51172 C 287.11429 260.51172 294.27128 262.93369 298.39922 268.52539 C 302.41512 273.92271 303.47755 281.56567 301.62187 290.24219 C 301.04853 292.92409 298.71922 295.17923 296.40117 295.29688 L 282.12969 296.02148 C 287.61875 298.34359 293.22637 301.63622 295.45977 309.64453 C 296.75086 314.08727 296.53813 319.43474 295.10234 325.33203 C 293.72993 330.96901 291.01958 336.40788 287.20781 341.25195 C 283.30184 346.21575 278.44002 350.00325 273.075 352.36914 C 273.06562 352.37314 273.05703 352.37653 273.04766 352.38086 C 267.70017 354.69995 261.80088 355.73828 255.28984 355.73828 C 245.73434 355.73828 238.41407 353.13569 234.07109 347.34961 L 234.06328 347.33594 C 229.79307 341.58781 228.54599 333.19574 229.98906 323.08984 C 230.37751 320.36862 232.66392 317.91556 235.05742 317.65039 L 249.2957 316.07227 C 251.52102 315.82608 253.06069 317.56866 252.83477 320.07617 C 252.40847 324.79478 253.06748 327.60963 254.26445 329.2168 C 255.53958 330.88596 257.62129 331.87891 261.24297 331.87891 C 265.24452 331.87891 267.89307 330.86467 269.45781 329.63086 C 271.4872 328.02594 272.11634 326.95967 272.49883 325.38867 C 272.73765 324.40774 272.67908 324.09273 272.44805 323.62305 C 272.43053 323.58684 272.41364 323.55079 272.39727 323.51367 C 272.27532 323.24203 271.47726 322.28587 269.65898 321.44141 C 268.51603 320.92877 264.95196 319.68261 259.4832 317.96875 C 252.0833 315.65688 246.8789 312.89525 243.89922 308.69727 L 243.89727 308.69727 C 240.12294 303.37603 239.04742 296.23603 240.94609 288.4375 C 242.19326 283.31492 244.6824 278.36734 248.16484 274.00391 C 248.16752 274.00147 248.17017 273.99688 248.17266 273.99414 L 248.17461 273.99219 C 251.79307 269.47561 256.31174 266.0161 261.31328 263.7793 C 261.31815 263.77713 261.32376 263.7756 261.32891 263.77344 C 266.37134 261.53511 271.81766 260.51172 277.65703 260.51172 z M 317.55352 261.91992 L 332.99492 261.91992 C 334.7802 261.9202 336.04327 263.24841 336.13945 265.22656 L 338.43828 312.58789 L 363.32695 265.27344 C 364.38027 263.27101 366.30711 261.91966 368.1082 261.91992 L 383.21172 261.91992 C 386.10087 261.92043 387.29929 265.2737 385.54961 268.45898 L 340.19414 351.0332 C 339.12643 352.97745 337.23701 354.27497 335.47344 354.27539 L 320.27422 354.27539 C 318.50957 354.27555 317.24991 352.97706 317.12969 351.03125 L 312.03203 268.45508 C 311.83626 265.27115 314.66615 261.921 317.55352 261.91992 z M 271.77227 284.08984 C 268.2075 284.08984 265.69186 284.9569 264.00859 286.14258 C 264.00529 286.14474 264.00408 286.14627 264.00078 286.14844 C 263.2658 286.66457 263.37827 286.51609 263.18437 287.3125 C 263.04521 287.8841 262.99601 287.92307 263.50273 288.58008 C 263.76167 288.91463 267.48944 291.22632 273.7625 293.08594 C 276.15582 293.79543 278.21177 294.52069 280.11797 295.26367 C 279.154 294.62695 278.60693 293.42387 278.67852 291.95312 C 279.02667 288.46741 278.508 286.74679 277.76641 285.87891 C 277.75143 285.86073 277.73806 285.84272 277.72344 285.82422 C 277.01441 284.95472 275.22386 284.08984 271.77227 284.08984 z " />
  </g>
</svg>
