<?xml version="1.0" encoding="UTF-8" standalone="no"?>
<svg
   width="512"
   height="512"
   version="1.1"
   viewBox="0 0 512 512"
   id="svg5"
   sodipodi:docname="csv-import-dark.svg"
   inkscape:version="1.4.4 (dcaf3e7d9e, 2026-05-05)"
   xmlns:inkscape="http://www.inkscape.org/namespaces/inkscape"
   xmlns:sodipodi="http://sodipodi.sourceforge.net/DTD/sodipodi-0.dtd"
   xmlns="http://www.w3.org/2000/svg"
   xmlns:svg="http://www.w3.org/2000/svg">
  <sodipodi:namedview
     id="namedview1"
     pagecolor="#ffffff"
     bordercolor="#000000"
     borderopacity="0.25"
     inkscape:showpageshadow="2"
     inkscape:pageopacity="0.0"
     inkscape:pagecheckerboard="0"
     inkscape:deskcolor="#d1d1d1"
     showguides="true"
     inkscape:zoom="3.2077606"
     inkscape:cx="295.06566"
     inkscape:cy="244.09552"
     inkscape:window-width="2400"
     inkscape:window-height="1323"
     inkscape:window-x="0"
     inkscape:window-y="0"
     inkscape:window-maximized="1"
     inkscape:current-layer="svg5" />
  <defs
     id="defs5" />
  <g
     id="path1"
     style="opacity:1;fill:#000000;fill-opacity:1;stroke:none">
    <path
       id="path18"
       style="baseline-shift:baseline;display:inline;overflow:visible;vector-effect:none;fill:#000000;stroke-linecap:round;stroke-linejoin:round;stroke-dashoffset:359.999;enable-background:accumulate;stop-color:#000000;stop-opacity:1;fill-opacity:1;stroke:none"
       d="M 166.5918 116.50977 C 152.78525 116.51077 141.59318 127.70322 141.5918 141.50977 L 141.5918 362.49023 C 141.5928 376.29678 152.78525 387.48885 166.5918 387.49023 L 353.4082 387.49023 C 367.21475 387.48923 378.40682 376.29678 378.4082 362.49023 L 378.4082 173.70312 C 378.40801 167.20378 375.87698 160.95991 371.35156 156.29492 L 340.125 124.10352 C 335.41635 119.24954 328.94227 116.50997 322.17969 116.50977 L 166.5918 116.50977 z M 194.25195 171.57031 C 201.70071 171.57031 208.42857 173.03713 214.07227 176.32617 C 219.72055 179.61789 224.0314 184.74603 226.58203 190.96094 A 6.50065 6.50065 0 0 1 222.61523 199.59766 L 214.64844 202.23828 A 6.50065 6.50065 0 0 1 206.56641 198.47461 C 205.59635 196.03958 204.33919 194.58166 202.32227 193.37891 A 6.50065 6.50065 0 0 1 202.29883 193.36523 C 200.26172 192.1392 197.76622 191.43555 194.33984 191.43555 C 188.87259 191.43555 185.80208 192.85144 183.24609 195.82031 A 6.50065 6.50065 0 0 1 183.23242 195.83789 C 180.64501 198.82337 179.09961 203.10105 179.09961 209.71289 C 179.09961 216.1728 180.6573 220.52592 183.4707 223.82617 C 186.26403 227.04188 189.39749 228.47266 194.69141 228.47266 C 201.23114 228.47266 204.89918 226.17906 208.48242 219.13281 A 6.50065 6.50065 0 0 1 217.18359 216.26562 L 224.04883 219.69727 A 6.50065 6.50065 0 0 1 227.00586 228.31445 C 223.9828 234.63855 219.46404 239.81116 213.70898 243.27148 C 208.01827 246.7108 201.38281 248.38281 194.29688 248.38281 C 187.15246 248.38281 180.54284 246.87573 174.86328 243.67188 A 6.50065 6.50065 0 0 1 174.82031 243.64648 C 169.20685 240.42327 164.74062 235.63944 161.8125 229.7832 A 6.50065 6.50065 0 0 1 161.79102 229.74023 C 158.89949 223.8501 157.5625 217.09424 157.5625 209.71289 C 157.5625 198.65541 160.70842 188.97819 167.36523 181.99219 C 174.02565 175.00241 183.51949 171.57031 194.25195 171.57031 z M 260.99609 171.57031 C 268.69753 171.57031 275.14039 172.64273 280.40234 175.70312 C 285.761 178.79034 289.40059 184.1921 291.22656 190.5293 A 6.50065 6.50065 0 0 1 286.10547 198.73047 L 277.83203 200.18359 A 6.50065 6.50065 0 0 1 270.44336 195.51562 C 269.88452 193.49658 269.29919 192.8755 268.27539 192.28711 A 6.50065 6.50065 0 0 1 268.22852 192.25977 C 267.1195 191.60965 264.70892 190.90625 260.9082 190.90625 C 256.6678 190.90625 254.05719 191.71769 253.01562 192.37305 C 252.04293 192.98511 252.13672 192.70128 252.13672 194.2207 C 252.13672 194.73268 252.17585 194.84633 252.20312 194.87109 C 252.20533 194.87225 252.21089 194.87458 252.21289 194.875 L 252.21484 194.875 L 252.2168 194.87695 L 252.21875 194.87695 L 252.2207 194.87695 L 252.22266 194.87695 L 252.22461 194.87695 C 252.48938 195.17672 253.05793 195.67278 254.22461 196.21875 C 255.047 196.58139 258.82214 197.74184 264.33984 198.96484 A 6.50065 6.50065 0 0 1 264.39453 198.97852 C 266.30089 199.41844 268.19344 199.87282 270.07227 200.3418 C 272.21906 200.83721 274.28922 201.45646 276.2832 202.19727 C 278.32341 202.92583 280.26642 203.8048 282.09375 204.8418 C 284.18869 206.01297 286.08959 207.49931 287.68945 209.26758 C 289.37407 211.12951 290.66448 213.32898 291.54102 215.68945 C 292.52833 218.26659 292.93359 221.02072 292.93359 223.88281 C 292.93359 231.3002 289.43659 238.28939 283.43359 242.49219 C 277.45529 246.69765 269.7807 248.38281 260.82031 248.38281 C 252.51236 248.38281 245.36906 246.99137 239.57617 243.51758 C 233.78328 240.04378 229.74445 234.27323 228.21094 227.57812 A 6.50065 6.50065 0 0 1 233.27344 219.75391 L 241.41406 218.125 A 6.50065 6.50065 0 0 1 248.99219 222.91016 C 249.57979 225.24219 250.33824 226.17371 251.9043 227.08203 C 253.56718 228.01934 256.60626 228.82617 261.12891 228.82617 C 265.81473 228.82617 268.79523 227.9387 270.20117 227.05469 C 271.55843 226.19456 271.61523 226.14468 271.61523 224.32227 C 271.61523 223.52687 271.50728 223.29016 271.48633 223.25977 L 271.48438 223.25977 A 6.50065 6.50065 0 0 1 271.43555 223.19531 C 271.23982 222.92383 270.87778 222.55005 269.96875 222.10352 C 268.84081 221.54944 267.28763 220.99229 265.33008 220.52148 C 263.05314 219.97387 260.52069 219.37907 257.74219 218.74219 C 252.62851 217.60921 248.6386 216.48746 245.42578 215.12109 A 6.50065 6.50065 0 0 1 245.40039 215.11133 C 242.41852 213.82843 239.82261 212.33059 237.63672 210.36328 A 6.50065 6.50065 0 0 1 237.58398 210.31445 C 235.49248 208.39027 233.80081 206.0478 232.65234 203.45312 A 6.50065 6.50065 0 0 1 232.61719 203.37109 C 231.45752 200.65031 230.95117 197.69104 230.95117 194.66016 C 230.95117 187.69781 234.17266 181.05107 239.76172 177.08203 A 6.50065 6.50065 0 0 1 239.7793 177.07031 C 245.40536 173.10374 252.60355 171.57031 260.99609 171.57031 z M 296.84766 172.49414 L 305.69336 172.49414 A 6.50065 6.50065 0 0 1 311.74219 176.61523 L 326.54688 214.27148 L 341.27148 176.62695 A 6.50065 6.50065 0 0 1 347.32422 172.49414 L 356.17188 172.49414 A 6.50065 6.50065 0 0 1 362.18945 181.44922 L 336.88477 243.45898 A 6.50065 6.50065 0 0 1 330.86523 247.50195 L 322.15234 247.50195 A 6.50065 6.50065 0 0 1 316.13477 243.45898 L 290.82812 181.44922 A 6.50065 6.50065 0 0 1 296.84766 172.49414 z M 281.92773 215.52344 C 281.93225 215.53321 281.93474 215.54385 281.94141 215.55273 C 281.94975 215.56411 281.96088 215.57213 281.9707 215.58203 L 281.92773 215.52344 z M 260 267.9082 A 17.5 17.5 0 0 1 277.5 285.4082 L 277.5 309.10742 L 306.14258 309.10742 C 310.96594 309.11005 313.32962 314.98629 309.85156 318.32812 L 263.71094 362.63281 C 261.63761 364.62394 258.36239 364.62394 256.28906 362.63281 L 210.14844 318.32812 C 206.67038 314.98631 209.03406 309.11042 213.85742 309.10742 L 242.5 309.10742 L 242.5 285.4082 A 17.5 17.5 0 0 1 260 267.9082 z " />
  </g>
  <g
     id="text8"
     style="opacity:1" />
  <g
     id="path3"
     style="opacity:1" />
</svg>
