<?xml version="1.0" encoding="UTF-8" standalone="no"?>
<svg
   width="512"
   height="512"
   version="1.1"
   viewBox="0 0 512 512"
   id="svg5"
   sodipodi:docname="export-graph-dark.svg"
   inkscape:version="1.4.4 (dcaf3e7d9e, 2026-05-05)"
   xmlns:inkscape="http://www.inkscape.org/namespaces/inkscape"
   xmlns:sodipodi="http://sodipodi.sourceforge.net/DTD/sodipodi-0.dtd"
   xmlns="http://www.w3.org/2000/svg"
   xmlns:svg="http://www.w3.org/2000/svg">
  <sodipodi:namedview
     id="namedview1"
     pagecolor="#ffffff"
     bordercolor="#000000"
     borderopacity="0.25"
     inkscape:showpageshadow="2"
     inkscape:pageopacity="0.0"
     inkscape:pagecheckerboard="0"
     inkscape:deskcolor="#d1d1d1"
     showguides="true"
     inkscape:zoom="1.6038804"
     inkscape:cx="249.08341"
     inkscape:cy="239.41935"
     inkscape:window-width="2400"
     inkscape:window-height="1323"
     inkscape:window-x="0"
     inkscape:window-y="0"
     inkscape:window-maximized="1"
     inkscape:current-layer="svg5" />
  <defs
     id="defs5" />
  <g
     id="path1"
     style="opacity:1;stroke:none;fill:#000000;fill-opacity:1">
    <path
       id="path3"
       style="baseline-shift:baseline;display:inline;overflow:visible;vector-effect:none;fill:#000000;stroke-linecap:round;stroke-linejoin:round;stroke-dashoffset:359.999;enable-background:accumulate;stop-color:#000000;stop-opacity:1;stroke:none;fill-opacity:1"
       d="M 169.5918 120.50977 C 155.78525 120.51077 144.59318 131.70322 144.5918 145.50977 L 144.5918 366.49023 C 144.5928 380.29678 155.78525 391.48885 169.5918 391.49023 L 342.4082 391.49023 C 356.21475 391.48923 367.40682 380.29678 367.4082 366.49023 L 367.4082 177.70312 C 367.40835 172.11202 365.53446 166.68219 362.08594 162.28125 L 336.85742 130.08984 C 332.11843 124.04281 324.86244 120.51024 317.17969 120.50977 L 169.5918 120.50977 z M 192.6875 175.52734 A 12.5 12.5 0 0 1 205.1875 188.02734 L 205.1875 315.47266 L 323.3125 315.47266 A 12.5 12.5 0 0 1 335.8125 327.97266 A 12.5 12.5 0 0 1 323.3125 340.47266 L 192.6875 340.47266 A 12.50125 12.50125 0 0 1 180.1875 327.97266 L 180.1875 188.02734 A 12.5 12.5 0 0 1 192.6875 175.52734 z M 311.1543 189.91406 A 15 15 0 0 1 313.11133 190.04102 A 15 15 0 0 1 326.02734 206.86914 C 326.02734 206.86915 325.03282 213.18739 321.72656 220.3418 C 318.42029 227.49621 312.60604 236.722 302.77734 246.08984 C 290.96005 257.35294 276.31743 258.46812 267.95312 258.90039 C 259.58883 259.33267 258.59581 258.87227 255.88281 262.05273 C 248.12046 271.15255 245.33984 283.02344 245.33984 283.02344 A 15 15 0 0 1 227.61719 294.67969 A 15 15 0 0 1 215.96094 276.95508 C 215.96094 276.95508 219.4326 258.55581 233.05859 242.58203 C 243.28383 230.59498 258.10666 229.37034 266.40625 228.94141 C 274.70583 228.51248 277.57275 228.669 282.08008 224.37305 C 289.10122 217.68113 292.65002 211.74829 294.49414 207.75781 C 296.3383 203.76733 296.2832 202.95508 296.2832 202.95508 A 15 15 0 0 1 311.1543 189.91406 z " />
  </g>
  <g
     id="g1"
     transform="translate(11.022035,0.32263)" />
</svg>
