<?xml version="1.0" encoding="UTF-8" standalone="no"?>
<svg
   width="512"
   height="512"
   version="1.1"
   viewBox="0 0 512 512"
   id="svg5"
   sodipodi:docname="load-light.svg"
   inkscape:version="1.4.4 (dcaf3e7d9e, 2026-05-05)"
   xmlns:inkscape="http://www.inkscape.org/namespaces/inkscape"
   xmlns:sodipodi="http://sodipodi.sourceforge.net/DTD/sodipodi-0.dtd"
   xmlns="http://www.w3.org/2000/svg"
   xmlns:svg="http://www.w3.org/2000/svg">
  <sodipodi:namedview
     id="namedview1"
     pagecolor="#ffffff"
     bordercolor="#000000"
     borderopacity="0.25"
     inkscape:showpageshadow="2"
     inkscape:pageopacity="0.0"
     inkscape:pagecheckerboard="0"
     inkscape:deskcolor="#d1d1d1"
     showguides="true"
     inkscape:zoom="1.1341147"
     inkscape:cx="111.54075"
     inkscape:cy="107.57289"
     inkscape:window-width="2400"
     inkscape:window-height="1323"
     inkscape:window-x="0"
     inkscape:window-y="0"
     inkscape:window-maximized="1"
     inkscape:current-layer="svg5" />
  <defs
     id="defs5" />
  <path
     id="rect1"
     style="fill:#b2b2b2;stroke-width:22.0023;stroke-linecap:round;stroke-linejoin:round;stroke-dashoffset:359.999;stroke:none"
     d="M 121.64258 117.54883 C 98.140661 117.54883 84.5 131.1895 84.5 154.69141 L 84.5 352.0293 C 84.5 375.53122 103.41997 394.45117 126.92188 394.45117 L 385.07812 394.45117 C 408.58004 394.45117 427.5 375.53122 427.5 352.0293 L 427.5 200.45508 C 427.5 176.95317 408.58004 158.0332 385.07812 158.0332 L 320.53906 158.0332 L 236.63867 158.0332 C 210.25414 158.80922 218.14934 117.54883 186.18164 117.54883 L 121.64258 117.54883 z M 306.92383 219.69336 C 319.70926 219.69336 330.38483 222.38113 338.41016 228.4043 C 346.25771 234.2183 351.45328 242.59163 353.63281 252.59766 C 354.31844 255.7495 352.26437 258.84475 349.09375 259.4375 L 329.7207 263.0625 C 326.82081 263.60484 323.98401 261.8532 323.16992 259.01758 C 322.11504 255.34251 320.37758 252.86982 317.61328 250.87695 C 317.59298 250.86215 317.57283 250.84713 317.55273 250.83203 C 314.92228 248.8824 311.60833 247.80469 306.92383 247.80469 C 299.61582 247.80469 294.70446 249.86503 290.75 254.08984 C 287.01895 258.12195 284.77148 264.51737 284.77148 274.24219 C 284.77148 284.85477 287.12851 291.92777 290.9707 296.27148 C 295.04272 300.83087 299.79069 302.91797 306.72656 302.91797 C 310.06889 302.91797 313.42113 302.28113 316.90234 300.93555 C 319.60958 299.86877 321.84932 298.63401 323.87109 297.32812 L 323.87109 293.86719 L 307.25391 293.86719 C 304.09455 293.86693 301.53346 291.30584 301.5332 288.14648 L 301.5332 271.86914 C 301.53346 268.70979 304.09456 266.1487 307.25391 266.14844 L 349.29492 266.14844 C 352.45427 266.1487 355.01536 268.70979 355.01562 271.86914 L 355.01562 310.35156 C 355.01574 311.90141 354.38707 313.38499 353.27344 314.46289 C 348.40967 319.16977 341.824 322.94642 333.58008 326.16016 C 333.57488 326.16216 333.56945 326.16402 333.56445 326.16602 C 325.21781 329.39085 316.64624 331.03125 307.97852 331.03125 C 297.0787 331.03125 287.22061 328.72589 278.75391 323.97266 C 278.74671 323.96896 278.73942 323.96494 278.73242 323.96094 C 270.26484 319.15769 263.70713 312.10933 259.46289 303.27539 C 259.46089 303.27169 259.45903 303.26767 259.45703 303.26367 C 255.30422 294.57173 253.23242 285.07964 253.23242 275.0332 C 253.23242 264.17384 255.54033 254.2197 260.24414 245.49805 C 264.9852 236.70733 272.11179 229.79733 281.16406 225.14453 L 281.16602 225.14453 L 281.16602 225.14258 L 281.16797 225.14258 L 281.16992 225.14258 C 288.39269 221.4045 297.03812 219.69336 306.92383 219.69336 z M 168.4375 221.33984 L 239.14453 221.33984 C 242.30388 221.3401 244.86497 223.9012 244.86523 227.06055 L 244.86523 242.2168 C 244.86461 243.53005 244.41221 244.80312 243.58398 245.82227 L 198.24414 301.66602 L 241.18555 301.66602 C 244.3449 301.66628 246.90599 304.22737 246.90625 307.38672 L 246.90625 323.66211 C 246.90599 326.82146 244.3449 329.38255 241.18555 329.38281 L 162.70508 329.38281 C 159.54573 329.38255 156.98463 326.82146 156.98438 323.66211 L 156.98438 306.06836 C 156.98468 304.75783 157.43491 303.48713 158.25977 302.46875 L 201.45117 249.12305 L 168.4375 249.12305 C 165.27815 249.12279 162.71706 246.56169 162.7168 243.40234 L 162.7168 227.06055 C 162.71706 223.9012 165.27815 221.3401 168.4375 221.33984 z " />
  <g
     id="text2"
     style="opacity:1" />
</svg>
