<?xml version="1.0" encoding="UTF-8" standalone="no"?>
<svg
   viewBox="0 0 576 512"
   version="1.1"
   id="svg1"
   sodipodi:docname="open-eye.svg"
   inkscape:version="1.4.2 (ebf0e940d0, 2025-05-08)"
   xmlns:inkscape="http://www.inkscape.org/namespaces/inkscape"
   xmlns:sodipodi="http://sodipodi.sourceforge.net/DTD/sodipodi-0.dtd"
   xmlns="http://www.w3.org/2000/svg"
   xmlns:svg="http://www.w3.org/2000/svg"
   xmlns:rdf="http://www.w3.org/1999/02/22-rdf-syntax-ns#"
   xmlns:cc="http://creativecommons.org/ns#"
   xmlns:dc="http://purl.org/dc/elements/1.1/">
  <defs
     id="defs1" />
  <sodipodi:namedview
     id="namedview1"
     pagecolor="#ffffff"
     bordercolor="#000000"
     borderopacity="0.25"
     inkscape:showpageshadow="2"
     inkscape:pageopacity="0.0"
     inkscape:pagecheckerboard="0"
     inkscape:deskcolor="#d1d1d1"
     inkscape:zoom="1.2539062"
     inkscape:cx="288.29908"
     inkscape:cy="255.60126"
     inkscape:window-width="2048"
     inkscape:window-height="1080"
     inkscape:window-x="0"
     inkscape:window-y="0"
     inkscape:window-maximized="1"
     inkscape:current-layer="svg1" />
  <path
     d="M 455.9944,245.43023 C 423.98985,173.03615 360.57122,123.73024 288,123.73024 c -72.57122,0 -135.99575,49.36496 -168.01271,121.69999 -1.12548,3.1296 -2.04841,7.61732 -2.04841,10.56977 0,2.93887 0.92235,7.44017 2.04841,10.05604 32.03467,72.9078 95.44149,122.21372 168.01271,122.21372 72.57122,0 135.98985,-49.35316 167.9944,-121.69999 1.12194,-3.1296 2.06672,-8.14876 2.06672,-10.56977 0,-2.95245 -0.94478,-7.44017 -2.06672,-10.56977 z M 373.03056,256 c 0,46.91444 -38.06889,85.03056 -84.97151,85.03056 -46.94396,0 -85.08961,-38.08661 -85.08961,-85.03056 0,-46.94396 38.0866,-85.03056 85.03056,-85.03056 46.94395,0 85.03056,38.0866 85.03056,85.03056 z M 288,199.31296 c -1.35813,0 -3.30674,0.2362 -5.01916,0.47239 C 286.11043,205.21786 288,211.47705 288,218.20864 288,239.08247 271.08247,256 250.20864,256 c -6.73159,0 -13.52222,-1.94862 -18.48234,-5.01917 -0.17714,1.77147 -0.41334,3.60199 -0.41334,5.01917 0,30.76453 25.39107,56.68704 56.68704,56.68704 31.29597,0 56.68704,-25.38517 56.68704,-56.68114 0,-31.29597 -25.92251,-56.69294 -56.68704,-56.69294 z"
     id="path1"
     style="stroke-width:0.59049" />
  <metadata
     id="metadata1">
    <rdf:RDF>
      <cc:License
         rdf:about="http://creativecommons.org/licenses/by/4.0/">
        <cc:permits
           rdf:resource="http://creativecommons.org/ns#Reproduction" />
        <cc:permits
           rdf:resource="http://creativecommons.org/ns#Distribution" />
        <cc:requires
           rdf:resource="http://creativecommons.org/ns#Notice" />
        <cc:requires
           rdf:resource="http://creativecommons.org/ns#Attribution" />
        <cc:permits
           rdf:resource="http://creativecommons.org/ns#DerivativeWorks" />
      </cc:License>
      <cc:Work
         rdf:about="">
        <cc:license
           rdf:resource="http://creativecommons.org/licenses/by/4.0/" />
        <dc:creator>
          <cc:Agent>
            <dc:title>Font Awesome - Solid icon pack</dc:title>
          </cc:Agent>
        </dc:creator>
      </cc:Work>
    </rdf:RDF>
  </metadata>
</svg>
