<?xml version="1.0" encoding="UTF-8" standalone="no"?>
<svg
   width="512"
   height="512"
   version="1.1"
   viewBox="0 0 512 512"
   id="svg5"
   sodipodi:docname="save-dark.svg"
   inkscape:version="1.4.4 (dcaf3e7d9e, 2026-05-05)"
   xmlns:inkscape="http://www.inkscape.org/namespaces/inkscape"
   xmlns:sodipodi="http://sodipodi.sourceforge.net/DTD/sodipodi-0.dtd"
   xmlns="http://www.w3.org/2000/svg"
   xmlns:svg="http://www.w3.org/2000/svg">
  <sodipodi:namedview
     id="namedview1"
     pagecolor="#ffffff"
     bordercolor="#000000"
     borderopacity="0.25"
     inkscape:showpageshadow="2"
     inkscape:pageopacity="0.0"
     inkscape:pagecheckerboard="0"
     inkscape:deskcolor="#d1d1d1"
     showguides="true"
     inkscape:zoom="1.1341147"
     inkscape:cx="306.4064"
     inkscape:cy="182.52122"
     inkscape:window-width="2400"
     inkscape:window-height="1323"
     inkscape:window-x="0"
     inkscape:window-y="0"
     inkscape:window-maximized="1"
     inkscape:current-layer="svg5" />
  <defs
     id="defs5" />
  <g
     id="path1"
     style="opacity:1;stroke:none;fill:#000000;fill-opacity:1"
     transform="translate(0,4)">
    <path
       id="path6"
       style="baseline-shift:baseline;display:inline;overflow:visible;vector-effect:none;fill:#000000;stroke-linecap:round;stroke-linejoin:round;stroke-dashoffset:359.999;enable-background:accumulate;stop-color:#000000;stop-opacity:1;stroke:none;fill-opacity:1"
       d="m 153.5918,116.50977 c -13.80655,10e-4 -24.99862,11.19345 -25,25 v 220.98046 c 0.001,13.80655 11.19345,24.99862 25,25 h 19.89258 v -96.15039 a 12.50125,12.50125 0 0 1 12.5,-12.5 h 140.03124 a 12.50125,12.50125 0 0 1 12.5,12.5 v 96.15039 h 19.89258 c 13.80655,-10e-4 24.99862,-11.19345 25,-25 V 173.70312 c 1.5e-4,-5.5911 -1.87374,-11.02093 -5.32226,-15.42187 l -25.22852,-32.19141 c -4.73899,-6.04703 -11.99498,-9.5796 -19.67773,-9.58007 h -8.66407 v 71.60156 a 12.50125,12.50125 0 0 1 -12.5,12.5 H 199.98438 a 12.50125,12.50125 0 0 1 -12.5,-12.5 v -71.60156 z m 58.89258,0 v 59.10156 h 87.03124 V 116.50977 H 286.5 v 31 a 12.5,12.5 0 0 1 -12.5,12.5 12.5,12.5 0 0 1 -12.5,-12.5 v -31 z m -14,187.33007 v 83.65039 h 115.03124 v -83.65039 z" />
  </g>
</svg>
