<?xml version="1.0" encoding="UTF-8" standalone="no"?>
<svg
   height="511.99997"
   version="1.1"
   viewBox="0 0 512.00002 511.99996"
   width="512"
   id="svg4269"
   xml:space="preserve"
   sodipodi:docname="schrodinger-cat-dark.svg"
   inkscape:version="1.4.3 (0d15f75042, 2025-12-25)"
   xmlns:inkscape="http://www.inkscape.org/namespaces/inkscape"
   xmlns:sodipodi="http://sodipodi.sourceforge.net/DTD/sodipodi-0.dtd"
   xmlns="http://www.w3.org/2000/svg"
   xmlns:svg="http://www.w3.org/2000/svg"><sodipodi:namedview
     id="namedview1"
     pagecolor="#ffffff"
     bordercolor="#000000"
     borderopacity="0.25"
     inkscape:showpageshadow="2"
     inkscape:pageopacity="0.0"
     inkscape:pagecheckerboard="0"
     inkscape:deskcolor="#d1d1d1"
     inkscape:zoom="1.5385098"
     inkscape:cx="168.66971"
     inkscape:cy="230.09278"
     inkscape:window-width="2400"
     inkscape:window-height="1323"
     inkscape:window-x="0"
     inkscape:window-y="0"
     inkscape:window-maximized="1"
     inkscape:current-layer="g5" /><title
     id="title4249" /><desc
     id="desc4251" /><defs
     id="defs4253" /><g
     id="g1"
     transform="translate(27.003861,31.564765)" /><g
     id="g5"
     transform="matrix(0.95,0,0,0.95,12.8,12.79998)"><path
       id="rect2"
       style="color:#fbfbfe;font-weight:400;font-size:16px;font-family:'Anthropic Sans', '-apple-system', BlinkMacSystemFont, 'Segoe UI', sans-serif;dominant-baseline:auto;text-anchor:start;fill:#000000;fill-opacity:1;stroke:none;stroke-width:0.824741px;stroke-linecap:butt;stroke-linejoin:miter"
       d="m 183.80078,164.17383 c -54.99835,0 -99.275389,44.27509 -99.275389,99.27344 v 57.70312 c 0,54.99835 44.277039,99.27344 99.275389,99.27344 h 144.39844 c 54.99835,0 99.27539,-44.27509 99.27539,-99.27344 v -57.70312 c 0,-54.99835 -44.27704,-99.27344 -99.27539,-99.27344 z m 167.91016,76.44336 c 4.25091,0.0794 8.36896,1.82395 11.40429,4.96093 6.25657,6.46554 6.08693,16.7789 -0.3789,23.03516 l -13.15235,12.72852 13.15235,12.72851 c 6.46583,6.25626 6.63547,16.56963 0.3789,23.03516 -6.25626,6.46583 -16.56962,6.63546 -23.03515,0.37891 l -13.91992,-13.47266 -13.92188,13.47266 c -6.46553,6.25657 -16.77889,6.08692 -23.03516,-0.37891 -6.25657,-6.46553 -6.08692,-16.7789 0.37891,-23.03516 l 13.15235,-12.72851 -13.15235,-12.72852 c -6.46583,-6.25626 -6.63548,-16.56962 -0.37891,-23.03516 3.00467,-3.10457 7.11957,-4.88838 11.43946,-4.95898 1.42332,-0.0238 2.84362,0.13903 4.22461,0.48438 2.77412,0.69517 5.31635,2.10841 7.37109,4.09765 l 13.92188,13.47266 13.91992,-13.47266 c 2.05474,-1.98924 4.59697,-3.40248 7.37109,-4.09765 1.41145,-0.35345 2.8428,-0.51279 4.25977,-0.48633 z m -168.31055,0.11133 c 22.43027,-4.3e-4 40.61371,18.18301 40.61328,40.61328 -6.5e-4,22.42951 -18.18377,40.61176 -40.61328,40.61132 -22.42951,4.3e-4 -40.61263,-18.18181 -40.61328,-40.61132 -4.3e-4,-22.43027 18.18301,-40.61371 40.61328,-40.61328 z m 36.57422,98.61718 h 72.05078 l -36.02734,42.83789 z"
       sodipodi:nodetypes="sssssssssscccccccccccccccccccsccccccccc" /><path
       id="polygon2-3"
       style="color:#fbfbfe;font-size:16px;font-family:'Anthropic Sans', '-apple-system', BlinkMacSystemFont, 'Segoe UI', sans-serif;fill:#000000;stroke-width:0.94499px;fill-opacity:1"
       d="M 402.45085,91.57537 426.1998,248.33404 255.85796,191.6207 Z"
       sodipodi:nodetypes="cccc" /><path
       id="polygon2-3-7"
       style="color:#fbfbfe;font-size:16px;font-family:'Anthropic Sans', '-apple-system', BlinkMacSystemFont, 'Segoe UI', sans-serif;fill:#000000;stroke-width:0.94499px;fill-opacity:1"
       d="M 109.4071,91.57537 85.65816,248.33404 256,191.6207 Z"
       sodipodi:nodetypes="cccc" /></g></svg>
