<?xml version="1.0" encoding="UTF-8" standalone="no"?>
<svg
   height="511.99997"
   version="1.1"
   viewBox="0 0 512.00002 511.99996"
   width="512"
   id="svg4269"
   xml:space="preserve"
   sodipodi:docname="schrodinger-cat-dark.svg"
   inkscape:version="1.4.4 (dcaf3e7d9e, 2026-05-05)"
   xmlns:inkscape="http://www.inkscape.org/namespaces/inkscape"
   xmlns:sodipodi="http://sodipodi.sourceforge.net/DTD/sodipodi-0.dtd"
   xmlns="http://www.w3.org/2000/svg"
   xmlns:svg="http://www.w3.org/2000/svg"><sodipodi:namedview
     id="namedview1"
     pagecolor="#ffffff"
     bordercolor="#000000"
     borderopacity="0.25"
     inkscape:showpageshadow="2"
     inkscape:pageopacity="0.0"
     inkscape:pagecheckerboard="0"
     inkscape:deskcolor="#d1d1d1"
     inkscape:zoom="1.5385098"
     inkscape:cx="342.86424"
     inkscape:cy="314.59013"
     inkscape:window-width="2400"
     inkscape:window-height="1323"
     inkscape:window-x="0"
     inkscape:window-y="0"
     inkscape:window-maximized="1"
     inkscape:current-layer="g5" /><title
     id="title4249" /><desc
     id="desc4251" /><defs
     id="defs4253" /><g
     id="g1"
     transform="translate(27.003861,31.564765)" /><g
     id="g5"
     transform="matrix(0.95,0,0,0.95,12.8,12.79998)"><path
       id="rect2"
       style="color:#fbfbfe;font-weight:400;font-size:16px;font-family:'Anthropic Sans', '-apple-system', BlinkMacSystemFont, 'Segoe UI', sans-serif;dominant-baseline:auto;text-anchor:start;fill:#000000;fill-opacity:1;stroke:none;stroke-width:0.824741px;stroke-linecap:butt;stroke-linejoin:miter"
       d="M 119.20518 90.666962 C 111.39256 91.069332 104.72436 97.047551 103.77138 105.13653 C 91.964328 178.21622 84.167476 248.87755 92.946957 322.07938 C 98.930963 376.75122 154.06497 421.35364 209.06332 421.35364 L 302.93668 421.35364 C 357.93503 421.35364 409.38098 386.17791 419.05304 322.07938 C 428.72511 257.98085 417.95849 178.22154 408.94202 105.13653 C 407.8529 95.891984 399.29977 89.403995 390.10362 90.845827 C 387.18837 91.302902 384.45053 92.536626 382.17804 94.419018 C 354.57667 118.86401 324.20279 140.26242 296.96012 165.10364 L 215.75329 165.10364 C 187.40257 141.48065 158.95139 117.96881 130.53742 94.419018 C 128.26438 92.536311 125.52572 91.302568 122.60979 90.845827 C 121.46027 90.665597 120.32127 90.60948 119.20518 90.666962 z M 300.43462 223.34172 A 18.421049 18.421049 0 0 1 313.46094 228.73851 L 326.26316 241.54073 L 339.06538 228.73851 A 18.421049 18.421049 0 0 1 365.11595 228.73851 A 18.421049 18.421049 0 0 1 365.11595 254.78908 L 352.31373 267.5913 L 365.11595 280.39352 A 18.421049 18.421049 0 0 1 365.11595 306.4441 A 18.421049 18.421049 0 0 1 339.06538 306.4441 L 326.26316 293.64188 L 313.46094 306.4441 A 18.421049 18.421049 0 0 1 287.40831 306.4441 A 18.421049 18.421049 0 0 1 287.41036 280.39352 L 300.21258 267.5913 L 287.41036 254.78908 A 18.421049 18.421049 0 0 1 287.40831 228.73851 A 18.421049 18.421049 0 0 1 300.43462 223.34172 z M 183.7426 225.33801 A 42.253555 42.253555 0 0 1 225.99589 267.5913 A 42.253555 42.253555 0 0 1 183.7426 309.84459 A 42.253555 42.253555 0 0 1 141.48931 267.5913 A 42.253555 42.253555 0 0 1 183.7426 225.33801 z M 233.51439 324.29566 L 274.49507 324.29566 A 10.478947 10.478947 0 0 1 282.51316 341.51811 L 262.02179 365.88489 A 10.478947 10.478947 0 0 1 245.98355 365.88283 L 225.49424 341.51811 A 10.478947 10.478947 0 0 1 233.51439 324.29566 z " /><g
       id="polygon2-3-0-5"
       style="opacity:1" /><g
       id="g2"
       transform="rotate(-45,440.79886,564.82174)" /><g
       id="path3"
       style="opacity:1" /><g
       id="polygon2-3-0-5-4"
       style="opacity:1" /></g></svg>
