<?xml version="1.0" encoding="UTF-8" standalone="no"?>
<svg
   width="24"
   height="24"
   version="1.1"
   viewBox="0 0 41.413 41.413"
   id="svg5"
   sodipodi:docname="table-light.svg"
   inkscape:version="1.4.2 (ebf0e940d0, 2025-05-08)"
   xmlns:inkscape="http://www.inkscape.org/namespaces/inkscape"
   xmlns:sodipodi="http://sodipodi.sourceforge.net/DTD/sodipodi-0.dtd"
   xmlns="http://www.w3.org/2000/svg"
   xmlns:svg="http://www.w3.org/2000/svg">
  <defs
     id="defs5" />
  <sodipodi:namedview
     id="namedview5"
     pagecolor="#ffffff"
     bordercolor="#000000"
     borderopacity="0.25"
     inkscape:showpageshadow="2"
     inkscape:pageopacity="0.0"
     inkscape:pagecheckerboard="0"
     inkscape:deskcolor="#d1d1d1"
     inkscape:zoom="26.339728"
     inkscape:cx="9.9659345"
     inkscape:cy="15.300082"
     inkscape:window-width="2048"
     inkscape:window-height="1080"
     inkscape:window-x="0"
     inkscape:window-y="0"
     inkscape:window-maximized="1"
     inkscape:current-layer="g5" />
  <g
     transform="matrix(0.81,0,0,0.81,-78.393683,-61.676659)"
     id="g5"
     style="stroke:#000000;stroke-opacity:1">
    <g
       transform="matrix(0.99441,0,0,0.99441,0.56812,0.45275)"
       id="g4"
       style="stroke:#000000;stroke-opacity:1">
      <path
         d="m 106.66,83.018 h 31.611 c 1.662,0 3,1.338 3,3 v 31.611 c 0,1.662 -1.338,3 -3,3 H 106.66 c -1.662,0 -3,-1.338 -3,-3 V 86.018 c 0,-1.662 1.338,-3 3,-3 z"
         fill="none"
         stroke="#000000"
         stroke-width="4.0353"
         id="path1"
         style="stroke:#b2b2b2;stroke-opacity:1" />
      <path
         d="m 106.65,83.018 h 31.622 c 1.6589,0 2.9944,2.0724 2.9944,4.6466 v 0.62923 c 0,2.5742 0.95655,4.6466 -0.70232,4.6466 h -36.285 c -1.6589,0 -0.62274,-2.0724 -0.62274,-4.6466 V 87.6646 c 0,-2.5742 1.3355,-4.6466 2.9944,-4.6466 z"
         stroke-width="1.6756"
         id="path2"
         style="stroke:#b2b2b2;stroke-opacity:1;fill:#b2b2b2;fill-opacity:1" />
      <path
         d="M 122.46,120.63 122.4203,92.252"
         fill="none"
         stroke="#000000"
         stroke-width="4.0353"
         id="path3"
         style="stroke:#b2b2b2;stroke-opacity:1" />
      <path
         d="m 103.64,105.34 h 37.611"
         fill="none"
         stroke="#000000"
         stroke-width="4.0353"
         id="path4"
         style="stroke:#b2b2b2;stroke-opacity:1" />
    </g>
  </g>
</svg>
