<?xml version="1.0" encoding="UTF-8"?>
<svg width="24" height="24" version="1.1" viewBox="0 0 41.413 41.413" xmlns="http://www.w3.org/2000/svg">
 <g transform="translate(-101.64 -81.001)">
  <g transform="matrix(.99441 0 0 .99441 .56812 .45275)">
   <path d="m106.66 83.018h31.611c1.662 0 3 1.338 3 3v31.611c0 1.662-1.338 3-3 3h-31.611c-1.662 0-3-1.338-3-3v-31.611c0-1.662 1.338-3 3-3z" fill="none" stroke="#000" stroke-width="4.0353"/>
   <path d="m106.65 83.018h31.622c1.6589 0 2.9944 2.0724 2.9944 4.6466v0.62923c0 2.5742 0.95655 4.6466-0.70232 4.6466h-36.285c-1.6589 0-0.62274-2.0724-0.62274-4.6466v-0.62923c0-2.5742 1.3355-4.6466 2.9944-4.6466z" stroke-width="1.6756"/>
   <path d="m122.46 120.63-0.0397-28.378" fill="none" stroke="#000" stroke-width="4.0353"/>
   <path d="m103.64 105.34h37.611" fill="none" stroke="#000" stroke-width="4.0353"/>
  </g>
 </g>
</svg>
