<?xml version="1.0" encoding="UTF-8" standalone="no"?>
<svg
   xmlns:dc="http://purl.org/dc/elements/1.1/"
   xmlns:cc="http://creativecommons.org/ns#"
   xmlns:rdf="http://www.w3.org/1999/02/22-rdf-syntax-ns#"
   xmlns:svg="http://www.w3.org/2000/svg"
   xmlns="http://www.w3.org/2000/svg"
   xmlns:sodipodi="http://sodipodi.sourceforge.net/DTD/sodipodi-0.dtd"
   xmlns:inkscape="http://www.inkscape.org/namespaces/inkscape"
   width="11.662803mm"
   height="11.507454mm"
   viewBox="0 0 11.662803 11.507454"
   version="1.1"
   id="svg8"
   inkscape:version="1.0.1 (3bc2e813f5, 2020-09-07)"
   sodipodi:docname="zoom-in-icon.svg">
  <defs
     id="defs2" />
  <sodipodi:namedview
     id="base"
     pagecolor="#ffffff"
     bordercolor="#666666"
     borderopacity="1.0"
     inkscape:pageopacity="0.0"
     inkscape:pageshadow="2"
     inkscape:zoom="5.6"
     inkscape:cx="19.873603"
     inkscape:cy="48.190451"
     inkscape:document-units="mm"
     inkscape:current-layer="layer1"
     inkscape:document-rotation="0"
     showgrid="false"
     inkscape:snap-bbox="true"
     inkscape:snap-intersection-paths="true"
     inkscape:snap-object-midpoints="true"
     inkscape:snap-center="true"
     inkscape:snap-midpoints="true"
     inkscape:snap-smooth-nodes="true"
     fit-margin-top="0"
     fit-margin-left="0"
     fit-margin-right="0"
     fit-margin-bottom="0"
     inkscape:window-width="1461"
     inkscape:window-height="1020"
     inkscape:window-x="459"
     inkscape:window-y="181"
     inkscape:window-maximized="0" />
  <metadata
     id="metadata5">
    <rdf:RDF>
      <cc:Work
         rdf:about="">
        <dc:format>image/svg+xml</dc:format>
        <dc:type
           rdf:resource="http://purl.org/dc/dcmitype/StillImage" />
        <dc:title></dc:title>
      </cc:Work>
    </rdf:RDF>
  </metadata>
  <g
     inkscape:label="Layer 1"
     inkscape:groupmode="layer"
     id="layer1"
     transform="translate(-127.23186,-62.167068)">
    <circle
       style="fill:none;stroke:#000000;stroke-width:1.274;stroke-miterlimit:4;stroke-dasharray:none;stroke-opacity:1"
       id="path847"
       cx="132.15887"
       cy="67.094078"
       r="4.29001" />
    <path
       id="rect855"
       style="fill:#000000;fill-opacity:1;stroke:none;stroke-width:1.12159;stroke-miterlimit:4;stroke-dasharray:none;stroke-opacity:1"
       d="m 135.77679,69.631059 3.02044,2.324086 c 0.14896,0.114615 0.12086,0.372065 -0.0416,0.551935 l -0.89713,0.99337 c -0.16245,0.17987 -0.41574,0.233992 -0.54486,0.09742 l -2.6183,-2.769373 c -0.12911,-0.136561 -0.12085,-0.372057 0.0416,-0.551927 l 0.49498,-0.548084 c 0.16245,-0.17987 0.39591,-0.212028 0.54486,-0.09742 z"
       sodipodi:nodetypes="sssssssss" />
    <path
       id="rect858"
       style="fill:#000000;fill-opacity:1;stroke:none;stroke-width:1.274;stroke-miterlimit:4;stroke-dasharray:none;stroke-opacity:1"
       d="m 131.60025,64.985727 c -0.0989,-3e-6 -0.17829,0.07993 -0.17829,0.1788 v 1.229381 h -1.22938 c -0.0989,0 -0.17828,0.07941 -0.17828,0.178284 v 1.138431 c 0,0.09887 0.0794,0.178284 0.17828,0.178284 h 1.22938 v 1.229384 c 0,0.09887 0.0794,0.1788 0.17829,0.1788 h 1.13843 c 0.0989,0 0.17828,-0.07993 0.17828,-0.1788 v -1.229384 h 1.2299 c 0.0989,0 0.17828,-0.07941 0.17828,-0.178284 v -1.138431 c 0,-0.09887 -0.0794,-0.178284 -0.17828,-0.178284 h -1.2299 v -1.229381 c 0,-0.09887 -0.0794,-0.1788 -0.17828,-0.1788 z" />
  </g>
</svg>
